<svg xmlns="http://www.w3.org/2000/svg" xml:space="preserve" viewBox="0 0 128 128" id="monero">
  <path fill="#F26722" d="M64.1 72.2c-14-14-27.8-27.7-41.7-41.7v53.7c-.5 0-.9.1-1.2.1H4.3c-.8 0-1.2-.2-1.4-1C.6 75.6-.4 67.8.2 59.7c1-13.6 5.7-25.8 14.5-36.3 9.7-11.7 22-19.2 37-22.1 19.8-3.8 37.8.8 53.4 13.7 11.9 9.8 19.1 22.5 21.9 37.7 1.9 10.3 1.1 20.4-1.9 30.4-.3.8-.6 1.1-1.5 1.1h-18V30.6C91.8 44.6 78 58.3 64.1 72.2z" style="fill:#f26722"></path>
  <path fill="#4C4C4D" d="M9.4 97.2h26.8V63.4l27.7 27.7c9.3-9.3 18.5-18.4 27.8-27.7v33.7h27c-5.3 8.5-11.9 15.4-20.2 20.7-8.2 5.3-17.2 8.6-26.9 9.7-29.5 3.5-52.4-13.2-62.2-30.3z" style="fill:#4c4c4d"></path>
</svg>
